<svg width="130" height="39" viewBox="0 0 130 39" fill="none" xmlns="http://www.w3.org/2000/svg">
<circle cx="18.5652" cy="19.5" r="18.5652" fill="url(#paint0_linear_2007_7)"/>
<path d="M55.6404 19.55C55.6404 21.008 55.9644 22.295 56.6124 23.411C57.2784 24.527 58.1424 25.4 59.2044 26.03C60.2664 26.66 61.4184 26.975 62.6604 26.975C63.5604 26.975 64.3794 26.858 65.1174 26.624C65.8734 26.39 66.5574 26.066 67.1694 25.652C67.7814 25.22 68.3034 24.725 68.7354 24.167V27.191C67.9434 27.893 67.0794 28.415 66.1434 28.757C65.2074 29.099 64.0464 29.27 62.6604 29.27C61.3464 29.27 60.1134 29.036 58.9614 28.568C57.8274 28.082 56.8284 27.407 55.9644 26.543C55.1004 25.661 54.4254 24.626 53.9394 23.438C53.4534 22.25 53.2104 20.954 53.2104 19.55C53.2104 18.146 53.4534 16.85 53.9394 15.662C54.4254 14.474 55.1004 13.448 55.9644 12.584C56.8284 11.702 57.8274 11.027 58.9614 10.559C60.1134 10.073 61.3464 9.83 62.6604 9.83C64.0464 9.83 65.2074 10.001 66.1434 10.343C67.0794 10.685 67.9434 11.207 68.7354 11.909V14.933C68.3034 14.375 67.7814 13.889 67.1694 13.475C66.5574 13.043 65.8734 12.71 65.1174 12.476C64.3794 12.242 63.5604 12.125 62.6604 12.125C61.4184 12.125 60.2664 12.44 59.2044 13.07C58.1424 13.7 57.2784 14.573 56.6124 15.689C55.9644 16.787 55.6404 18.074 55.6404 19.55ZM75.3928 16.229L73.9888 29H71.6938L73.9888 9.155L81.5488 22.844L89.1088 9.155L91.4038 29H89.1088L87.7048 16.229L81.5488 27.245L75.3928 16.229ZM95.9822 19.55C95.9822 20.972 96.2882 22.241 96.9002 23.357C97.5302 24.473 98.3852 25.355 99.4652 26.003C100.545 26.651 101.769 26.975 103.137 26.975C104.523 26.975 105.747 26.651 106.809 26.003C107.889 25.355 108.735 24.473 109.347 23.357C109.977 22.241 110.292 20.972 110.292 19.55C110.292 18.128 109.977 16.859 109.347 15.743C108.735 14.627 107.889 13.745 106.809 13.097C105.747 12.449 104.523 12.125 103.137 12.125C101.769 12.125 100.545 12.449 99.4652 13.097C98.3852 13.745 97.5302 14.627 96.9002 15.743C96.2882 16.859 95.9822 18.128 95.9822 19.55ZM93.5522 19.55C93.5522 18.164 93.7862 16.886 94.2542 15.716C94.7402 14.528 95.4152 13.502 96.2792 12.638C97.1432 11.756 98.1602 11.072 99.3302 10.586C100.5 10.082 101.769 9.83 103.137 9.83C104.523 9.83 105.792 10.082 106.944 10.586C108.114 11.072 109.131 11.756 109.995 12.638C110.859 13.502 111.525 14.528 111.993 15.716C112.479 16.886 112.722 18.164 112.722 19.55C112.722 20.918 112.479 22.196 111.993 23.384C111.525 24.572 110.859 25.607 109.995 26.489C109.131 27.353 108.114 28.037 106.944 28.541C105.792 29.027 104.523 29.27 103.137 29.27C101.769 29.27 100.5 29.027 99.3302 28.541C98.1602 28.037 97.1432 27.353 96.2792 26.489C95.4152 25.607 94.7402 24.572 94.2542 23.384C93.7862 22.196 93.5522 20.918 93.5522 19.55ZM116.665 23.276C117.097 24.032 117.547 24.698 118.015 25.274C118.501 25.85 119.041 26.3 119.635 26.624C120.229 26.948 120.904 27.11 121.66 27.11C122.668 27.11 123.478 26.831 124.09 26.273C124.702 25.715 125.008 25.004 125.008 24.14C125.008 23.294 124.81 22.619 124.414 22.115C124.018 21.611 123.496 21.206 122.848 20.9C122.218 20.576 121.543 20.288 120.823 20.036C120.355 19.874 119.833 19.667 119.257 19.415C118.681 19.145 118.132 18.812 117.61 18.416C117.088 18.002 116.656 17.498 116.314 16.904C115.99 16.31 115.828 15.581 115.828 14.717C115.828 13.781 116.062 12.944 116.53 12.206C116.998 11.468 117.646 10.892 118.474 10.478C119.302 10.046 120.247 9.83 121.309 9.83C122.335 9.83 123.226 10.028 123.982 10.424C124.756 10.802 125.413 11.297 125.953 11.909C126.493 12.503 126.916 13.133 127.222 13.799L125.251 14.933C125.017 14.465 124.72 14.006 124.36 13.556C124 13.106 123.559 12.737 123.037 12.449C122.533 12.161 121.912 12.017 121.174 12.017C120.148 12.017 119.401 12.269 118.933 12.773C118.465 13.259 118.231 13.808 118.231 14.42C118.231 14.942 118.366 15.428 118.636 15.878C118.906 16.31 119.356 16.724 119.986 17.12C120.634 17.498 121.507 17.876 122.605 18.254C123.109 18.434 123.64 18.668 124.198 18.956C124.756 19.244 125.269 19.613 125.737 20.063C126.223 20.495 126.619 21.026 126.925 21.656C127.231 22.268 127.384 23.006 127.384 23.87C127.384 24.698 127.222 25.445 126.898 26.111C126.592 26.777 126.16 27.344 125.602 27.812C125.062 28.28 124.441 28.64 123.739 28.892C123.055 29.144 122.335 29.27 121.579 29.27C120.553 29.27 119.599 29.054 118.717 28.622C117.853 28.172 117.088 27.587 116.422 26.867C115.774 26.129 115.243 25.346 114.829 24.518L116.665 23.276Z" fill="#15803D"/>
<defs>
<linearGradient id="paint0_linear_2007_7" x1="18.5652" y1="0.934784" x2="18.5652" y2="38.0652" gradientUnits="userSpaceOnUse">
<stop stop-color="#15803D"/>
<stop offset="1" stop-color="#041A0C"/>
</linearGradient>
</defs>
</svg>
